<svg width="53" height="68" viewBox="0 0 53 68" fill="none" xmlns="http://www.w3.org/2000/svg">
<path d="M16.0053 10.9044L46.4695 5.30002C49.5539 4.73259 52.3872 7.10946 52.3631 10.2442L52.0596 49.7411C52.0353 52.8955 49.132 55.2462 46.0433 54.6122L15.6701 48.3774C13.3357 47.8982 11.6681 45.8367 11.6865 43.4526L11.899 15.7949C11.9175 13.3927 13.6417 11.3393 16.0053 10.9044Z" fill="url(#paint0_linear_45_226)" stroke="#3D5552"/>
<g filter="url(#filter0_d_45_226)">
<path fill-rule="evenodd" clip-rule="evenodd" d="M15.2786 0.409317C14.5219 0.409317 13.8296 0.834623 13.4962 1.51396C8.84626 10.9896 4 23.4469 4 30.0217C4 37.1755 10.3864 51.7587 13.5084 58.4873C13.8345 59.1901 14.5387 59.634 15.3135 59.634L20.107 59.634C21.881 59.634 22.8358 57.4398 21.7477 56.0387C16.8022 49.6704 12.3522 40.3745 12.3522 30.0217C12.3522 19.6689 16.8021 10.373 21.7477 4.00465C22.8358 2.60354 21.881 0.409316 20.107 0.409316L15.2786 0.409317Z" fill="url(#paint1_linear_45_226)"/>
</g>
<defs>
<filter id="filter0_d_45_226" x="0" y="0.409302" width="26.2087" height="67.2247" filterUnits="userSpaceOnUse" color-interpolation-filters="sRGB">
<feFlood flood-opacity="0" result="BackgroundImageFix"/>
<feColorMatrix in="SourceAlpha" type="matrix" values="0 0 0 0 0 0 0 0 0 0 0 0 0 0 0 0 0 0 127 0" result="hardAlpha"/>
<feOffset dy="4"/>
<feGaussianBlur stdDeviation="2"/>
<feComposite in2="hardAlpha" operator="out"/>
<feColorMatrix type="matrix" values="0 0 0 0 0 0 0 0 0 0 0 0 0 0 0 0 0 0 0.25 0"/>
<feBlend mode="normal" in2="BackgroundImageFix" result="effect1_dropShadow_45_226"/>
<feBlend mode="normal" in="SourceGraphic" in2="effect1_dropShadow_45_226" result="shape"/>
</filter>
<linearGradient id="paint0_linear_45_226" x1="13.904" y1="33.4498" x2="48.7462" y2="32.6968" gradientUnits="userSpaceOnUse">
<stop stop-color="#3D5552"/>
<stop offset="0.828895" stop-color="#5E7773"/>
<stop offset="1" stop-color="#3D5552"/>
</linearGradient>
<linearGradient id="paint1_linear_45_226" x1="5.13894" y1="30.0217" x2="24.8805" y2="30.0217" gradientUnits="userSpaceOnUse">
<stop stop-color="#3D5552"/>
<stop offset="0.5" stop-color="#667977"/>
<stop offset="1" stop-color="#3D5552"/>
</linearGradient>
</defs>
</svg>
